Coordinates
version=1
nRows=14
nColumns=24
inDegrees=yes

Units are S.I. units (second, meters, Newtons, ...)
Angles are in degrees.

endheader
time	pelvis_tilt	pelvis_list	pelvis_rotation	pelvis_tx	pelvis_ty	pelvis_tz	hip_flexion_r	hip_adduction_r	hip_rotation_r	knee_angle_r	ankle_angle_r	subtalar_angle_r	mtp_angle_r	hip_flexion_l	hip_adduction_l	hip_rotation_l	knee_angle_l	ankle_angle_l	subtalar_angle_l	mtp_angle_l	lumbar_extension	lumbar_bending	lumbar_rotation
      2.05000000	      2.85309140	      1.92664996	     -1.58354119	      1.17663832	      0.88581057	      0.01632595	     -3.45915365	     -1.83738324	     -1.08963979	    -59.14032255	     -4.47671597	     -5.20929216	     49.06990368	     19.28973564	      6.87115256	     -2.02235032	    -25.56830970	     13.11299770	     -5.15549042	     25.51897143	     -9.77468638	     -4.49339247	     -0.43670047
      2.05500000	      2.93937710	      2.22760179	     -1.64438334	      1.18400379	      0.88673865	      0.01630349	     -2.38490294	     -2.14222407	     -0.97630665	    -60.68810910	     -4.13583448	     -6.50847619	     48.52673160	     18.64016073	      7.13889410	     -2.31274210	    -25.51296826	     13.69752841	     -4.70182559	     25.46801517	     -9.90900849	     -4.87039505	     -0.48015828
      2.06000000	      2.99236077	      2.44973264	     -1.62890946	      1.19130248	      0.88768205	      0.01624848	     -1.29034636	     -2.35161181	     -0.93609734	    -62.15330030	     -3.25673237	     -7.25218846	     45.42366804	     18.03070257	      7.32750092	     -2.57394267	    -25.48664603	     14.44314213	     -3.91549054	     24.48219009	    -10.01731078	     -5.14999528	     -0.62982210
      2.06500000	      3.09640107	      2.67776098	     -1.70419576	      1.19862024	      0.88883615	      0.01623633	     -0.23888500	     -2.57953709	     -0.82095110	    -63.49690232	     -2.42022920	     -8.11564517	     43.59068654	     17.26363182	      7.53489658	     -2.81099954	    -25.24360275	     14.99971928	     -3.53930406	     23.75145230	    -10.17212697	     -5.43790938	     -0.65886877
      2.07000000	      3.16665771	      2.82083638	     -1.73205729	      1.20589547	      0.89003450	      0.01620126	      0.83268243	     -2.70650116	     -0.75444990	    -64.70434804	     -1.51645478	     -8.88897191	     42.35744112	     16.50866765	      7.65854662	     -2.98097158	    -24.96477075	     15.54376511	     -2.96146269	     23.30921178	    -10.28909779	     -5.62347021	     -0.68313820
      2.07500000	      3.25231362	      2.95535401	     -1.82779060	      1.21315267	      0.89134019	      0.01624010	      1.90047223	     -2.82447264	     -0.62996887	    -65.80413973	     -0.64947320	     -9.69384070	     41.95158606	     15.68838387	      7.77732195	     -3.17609256	    -24.57874444	     15.96563668	     -2.71379934	     23.20395765	    -10.41903503	     -5.80419724	     -0.68165392
      2.08000000	      3.37029199	      3.02473054	     -1.84026046	      1.22041258	      0.89275685	      0.01621984	      2.89431774	     -2.86948063	     -0.59557306	    -66.77851041	      0.57316999	    -10.05965377	     39.74417440	     14.80109728	      7.84522595	     -3.27178717	    -24.15151682	     16.46924654	     -2.20532226	     22.35837797	    -10.58889587	     -5.90239650	     -0.80149247
      2.08500000	      3.41680736	      3.07682351	     -1.92639119	      1.22764011	      0.89413149	      0.01626378	      3.98453003	     -2.89445304	     -0.49870367	    -67.64613955	      1.59725925	    -10.60745594	     39.53263609	     13.95852172	      7.89361494	     -3.38131982	    -23.64119226	     16.79737215	     -1.95440957	     22.28085098	    -10.67441109	     -5.98364740	     -0.79302454
      2.09000000	      3.52959172	      3.08088650	     -2.03509921	      1.23490367	      0.89566472	      0.01639798	      4.97794672	     -2.85596317	     -0.38665169	    -68.38008775	      2.73880441	    -10.95246603	     38.83473682	     13.00522709	      7.88563168	     -3.51878638	    -23.06245000	     17.13580842	     -1.62447903	     22.01902786	    -10.82628359	     -6.01768003	     -0.80609438
      2.09500000	      3.58407083	      3.05585774	     -2.00036159	      1.24209993	      0.89711527	      0.01628510	      6.00971763	     -2.81405005	     -0.45532472	    -69.00053305	      3.78374893	    -11.37894617	     38.78414779	     12.12459121	      7.90546108	     -3.37362680	    -22.50048195	     17.37078900	     -1.49910009	     21.99300701	    -10.92942234	     -5.98957002	     -0.93215950
      2.10000000	      3.74860548	      3.02389477	     -2.16674293	      1.24941424	      0.89878414	      0.01648330	      6.92166058	     -2.74417699	     -0.32099266	    -69.51043303	      5.00017209	    -11.40468481	     37.84911084	     11.03600771	      7.87226288	     -3.51256871	    -21.76570490	     17.63722844	     -1.28875680	     21.61303963	    -11.12294421	     -5.98680850	     -0.87638465
      2.10500000	      3.77244960	      2.96067620	     -2.14867109	      1.25663992	      0.90023853	      0.01643697	      7.95378203	     -2.65730951	     -0.40272496	    -69.90600187	      6.00225787	    -11.78243785	     37.79224199	     10.13881339	      7.85386116	     -3.31649863	    -21.10821560	     17.79807701	     -1.18594600	     21.58134413	    -11.18395460	     -5.91706593	     -1.01014442
      2.11000000	      3.89316278	      2.93203736	     -2.24365786	      1.26399284	      0.90183459	      0.01652958	      8.87397282	     -2.62059781	     -0.39400284	    -70.20544810	      7.06138457	    -11.81114297	     37.45337913	      9.06513212	      7.86034497	     -3.28982346	    -20.30179718	     17.90708830	     -1.15599300	     21.43255170	    -11.32367015	     -5.90258843	     -1.04413818
      2.11500000	      4.07313023	      2.74878826	     -2.29522993	      1.27126822	      0.90354813	      0.01664025	      9.66957249	     -2.38767018	     -0.42933938	    -70.33898203	      8.20094996	    -11.81101588	     35.84877891	      7.93663886	      7.70466149	     -3.17993184	    -19.53897104	     18.10583492	     -1.05027633	     20.90151241	    -11.54936747	     -5.71295836	     -1.06471223
